HIERARCHY
ROOT Hips
{
	OFFSET 0.000000 0.000000 0.000000
	CHANNELS 6 Xposition Yposition Zposition Xrotation Yrotation Zrotation
	JOINT LeftUpLeg_virtual
	{
		OFFSET 0.000000 0.000000 0.000000
		CHANNELS 3 Xrotation Yrotation Zrotation
		JOINT LeftUpLeg
		{
			OFFSET 15.427100 -6.655098 0.678600
			CHANNELS 3 Xrotation Yrotation Zrotation
			JOINT LeftLeg
			{
				OFFSET 4.081073 -39.591068 13.024000
				CHANNELS 3 Xrotation Yrotation Zrotation
				JOINT LeftFoot
				{
					OFFSET -4.081074 -37.707932 -15.979700
					CHANNELS 3 Xrotation Yrotation Zrotation
					JOINT LeftToeBase
					{
						OFFSET 5.346399 -15.068900 20.645000
						CHANNELS 3 Xrotation Yrotation Zrotation
						JOINT LeftToe_End
						{
							OFFSET 2.754700 0.931300 11.300900
							CHANNELS 3 Xrotation Yrotation Zrotation
							End Site
							{
								OFFSET 0 0 0
							}
						}
					}
				}
			}
		}
	}
	JOINT RightUpLeg_virtual
	{
		OFFSET 0.000000 0.000000 0.000000
		CHANNELS 3 Xrotation Yrotation Zrotation
		JOINT RightUpLeg
		{
			OFFSET -15.569500 -6.655098 0.678600
			CHANNELS 3 Xrotation Yrotation Zrotation
			JOINT RightLeg
			{
				OFFSET -4.081825 -39.591045 13.023800
				CHANNELS 3 Xrotation Yrotation Zrotation
				JOINT RightFoot
				{
					OFFSET 4.081824 -37.707954 -15.979600
					CHANNELS 3 Xrotation Yrotation Zrotation
					JOINT RightToeBase
					{
						OFFSET -5.346400 -15.068900 20.645000
						CHANNELS 3 Xrotation Yrotation Zrotation
						JOINT RightToe_End
						{
							OFFSET -2.754700 0.931300 11.300900
							CHANNELS 3 Xrotation Yrotation Zrotation
							End Site
							{
								OFFSET 0 0 0
							}
						}
					}
				}
			}
		}
	}
	JOINT Spine_virtual
	{
		OFFSET 0.000000 0.000000 0.000000
		CHANNELS 3 Xrotation Yrotation Zrotation
		JOINT Spine
		{
			OFFSET -0.279200 12.230698 -2.892100
			CHANNELS 3 Xrotation Yrotation Zrotation
			JOINT Spine1
			{
				OFFSET -0.232667 10.192268 -1.242267
				CHANNELS 3 Xrotation Yrotation Zrotation
				JOINT Spine1_split
				{
					OFFSET -0.232667 10.192268 -1.242267
					CHANNELS 3 Xrotation Yrotation Zrotation
					JOINT Spine2
					{
						OFFSET -0.232667 10.192268 -1.242267
						CHANNELS 3 Xrotation Yrotation Zrotation
						JOINT Neck_virtual
						{
							OFFSET 0.000000 0.000000 0.000000
							CHANNELS 3 Xrotation Yrotation Zrotation
							JOINT Neck
							{
								OFFSET -0.418800 17.814194 8.416900
								CHANNELS 3 Xrotation Yrotation Zrotation
								JOINT Head
								{
									OFFSET 0.000000 7.031097 3.806800
									CHANNELS 3 Xrotation Yrotation Zrotation
									JOINT HeadTop_End
									{
										OFFSET 0.000000 24.646606 12.978600
										CHANNELS 3 Xrotation Yrotation Zrotation
										End Site
										{
											OFFSET 0 0 0
										}
									}
								}
							}
						}
						JOINT LeftShoulder_virtual
						{
							OFFSET 0.000000 0.000000 0.000000
							CHANNELS 3 Xrotation Yrotation Zrotation
							JOINT LeftShoulder
							{
								OFFSET 8.476499 7.247704 -3.868750
								CHANNELS 3 Xrotation Yrotation Zrotation
								JOINT LeftShoulder_split
								{
									OFFSET 8.476499 7.247704 -3.868750
									CHANNELS 3 Xrotation Yrotation Zrotation
									JOINT LeftArm
									{
										OFFSET 9.308998 -2.777710 0.208600
										CHANNELS 3 Xrotation Yrotation Zrotation
										JOINT LeftForeArm
										{
											OFFSET 29.972298 0.000000 0.000000
											CHANNELS 3 Xrotation Yrotation Zrotation
											JOINT LeftHand
											{
												OFFSET 26.026505 0.000000 0.000000
												CHANNELS 3 Xrotation Yrotation Zrotation
												End Site
												{
													OFFSET 0 0 0
												}
											}
										}
									}
								}
							}
						}
						JOINT RightShoulder_virtual
						{
							OFFSET 0.000000 0.000000 0.000000
							CHANNELS 3 Xrotation Yrotation Zrotation
							JOINT RightShoulder
							{
								OFFSET -7.570500 7.247704 -3.868750
								CHANNELS 3 Xrotation Yrotation Zrotation
								JOINT RightShoulder_split
								{
									OFFSET -7.570500 7.247704 -3.868750
									CHANNELS 3 Xrotation Yrotation Zrotation
									JOINT RightArm
									{
										OFFSET -9.308998 -2.777710 0.208500
										CHANNELS 3 Xrotation Yrotation Zrotation
										JOINT RightForeArm
										{
											OFFSET -29.972300 0.000000 0.000000
											CHANNELS 3 Xrotation Yrotation Zrotation
											JOINT RightHand
											{
												OFFSET -26.026505 0.000000 0.000000
												CHANNELS 3 Xrotation Yrotation Zrotation
												End Site
												{
													OFFSET 0 0 0
												}
											}
										}
									}
								}
							}
						}
					}
				}
			}
		}
	}
}
MOTION
Frames: 9
Frame Time: 0.03333333
6.279611 93.530510 -14.118799 0.000000 0.000000 0.000000 5.200272 8.140926 -0.745332 -18.232625 7.686947 0.452115 22.257234 3.952121 9.943781 -8.656367 -2.103728 -9.289040 -1.745595 -4.314047 3.332213 0.000000 0.000000 0.000000 5.216759 5.392627 -0.616490 -7.251534 -11.292549 2.412966 18.071291 -1.349938 -2.433091 -17.696496 -25.297077 7.924044 -4.455013 3.854966 -5.004070 0.000000 0.000000 0.000000 6.799997 9.945790 -1.186426 21.058875 -1.296619 1.972616 3.891843 1.977855 -0.059792 0.161020 -0.955089 0.158224 0.000000 0.000000 0.000000 6.346192 5.103124 -0.824399 7.172988 15.418372 7.942048 -12.457001 -55.606510 -44.594186 0.000000 0.000000 0.000000 5.763651 2.166662 -0.649113 6.521801 -38.519429 2.203320 5.976673 1.665740 -7.361998 18.680279 17.874334 -54.968673 4.468954 -40.516327 12.455899 0.000000 0.000000 0.000000 2.345198 2.593878 0.277446 -7.584189 0.208359 7.331800 -10.518712 -11.343526 6.328977 17.401461 11.267283 31.455883 -9.902558 35.731008 19.632303 0.000000 0.000000 0.000000 
6.316054 93.620560 -13.922659 0.000000 0.000000 0.000000 5.086783 8.142163 -0.850815 -17.941879 7.892529 0.552662 22.194488 3.878282 10.055124 -8.806091 -2.349950 -9.590945 -1.863174 -4.319611 3.328665 0.000000 0.000000 0.000000 5.092742 5.337220 -0.705829 -6.820514 -10.929819 2.662292 17.695512 -1.421587 -2.522331 -17.599420 -25.554574 7.885923 -4.626820 3.851831 -5.004508 0.000000 0.000000 0.000000 6.653224 10.042920 -1.299621 20.448208 -1.300231 1.947435 3.981946 2.036685 -0.128117 0.188512 -1.019262 0.176741 0.000000 0.000000 0.000000 6.280837 5.193518 -0.825339 6.997949 15.278896 8.395725 -12.117998 -57.411326 -46.441093 0.000000 0.000000 0.000000 5.949001 2.237734 -0.580366 6.179069 -37.708887 1.875651 6.189906 1.524172 -7.408564 19.261676 18.448015 -54.741401 5.385830 -40.025844 13.460244 0.000000 0.000000 0.000000 2.291925 2.588263 0.199948 -7.633685 0.548111 8.026406 -10.997116 -11.550094 5.936966 18.674137 9.906533 31.037073 -9.351382 37.107591 19.724330 0.000000 0.000000 0.000000 
6.349026 93.649025 -13.772154 0.000000 0.000000 0.000000 4.944822 8.184988 -0.974414 -17.766531 8.022585 0.700265 22.260391 3.818760 10.129050 -8.932569 -2.540497 -9.914319 -1.974946 -4.315737 3.312897 0.000000 0.000000 0.000000 4.965270 5.354536 -0.816952 -6.472361 -10.573242 2.890512 17.475609 -1.444840 -2.589899 -17.600870 -25.809601 7.827725 -4.701014 3.874312 -5.140700 0.000000 0.000000 0.000000 6.499064 10.148428 -1.427246 19.938830 -1.253160 1.952147 4.108076 2.113363 -0.171793 0.202873 -1.077246 0.188032 0.000000 0.000000 0.000000 6.224885 5.290826 -0.789552 6.915372 15.167664 8.731270 -12.048127 -59.304101 -48.335107 0.000000 0.000000 0.000000 6.155109 2.318363 -0.513703 5.850734 -36.864334 1.453528 6.283691 1.417193 -7.406673 19.422244 18.380305 -54.598784 6.536922 -39.740342 14.482453 0.000000 0.000000 0.000000 2.280112 2.599571 0.160074 -7.649378 0.958825 8.903361 -11.418734 -11.576867 5.617187 19.190156 8.753080 31.006709 -9.391158 38.326391 20.548703 0.000000 0.000000 0.000000 
6.377800 93.612175 -13.661093 0.000000 0.000000 0.000000 4.775097 8.260186 -1.098493 -17.694343 8.087065 0.870293 22.444220 3.779124 10.156951 -9.044152 -2.668682 -10.231466 -2.039107 -4.302281 3.285869 0.000000 0.000000 0.000000 4.839342 5.439440 -0.927991 -6.219797 -10.253340 3.060846 17.422243 -1.422433 -2.611018 -17.713703 -26.041170 7.710600 -4.612709 3.917799 -5.399401 0.000000 0.000000 0.000000 6.346815 10.276104 -1.560397 19.541612 -1.165597 1.986685 4.254968 2.208909 -0.185670 0.206177 -1.115848 0.192385 0.000000 0.000000 0.000000 6.185640 5.398314 -0.722799 6.854418 15.087101 8.927279 -12.392393 -61.180299 -50.310709 0.000000 0.000000 0.000000 6.342964 2.413530 -0.452664 5.549766 -36.089483 0.949602 6.227303 1.323366 -7.352560 19.256854 17.842657 -54.484682 7.651175 -39.593090 15.279534 0.000000 0.000000 0.000000 2.287786 2.632712 0.164867 -7.639837 1.381071 9.932934 -11.855070 -11.405300 5.365191 19.008563 7.874131 31.315079 -9.987675 39.284861 22.007932 0.000000 0.000000 0.000000 
6.399211 93.524918 -13.583689 0.000000 0.000000 0.000000 4.587703 8.358672 -1.189974 -17.686961 8.095262 1.029470 22.682496 3.754401 10.148034 -9.147444 -2.733439 -10.524582 -2.045532 -4.279315 3.261927 0.000000 0.000000 0.000000 4.701085 5.564388 -1.006943 -6.083245 -10.009909 3.133347 17.543088 -1.346436 -2.570116 -17.848982 -26.232417 7.603980 -4.455485 3.979480 -5.755982 0.000000 0.000000 0.000000 6.199532 10.434786 -1.675863 19.256392 -1.038212 2.039551 4.415373 2.326757 -0.176633 0.204918 -1.147970 0.189087 0.000000 0.000000 0.000000 6.170383 5.518848 -0.635427 6.724646 15.020945 8.976656 -13.288530 -62.965520 -52.460958 0.000000 0.000000 0.000000 6.487324 2.526383 -0.402614 5.279711 -35.484807 0.378358 6.121591 1.203084 -7.210758 18.873097 16.998401 -54.345974 8.530504 -39.693969 15.665640 0.000000 0.000000 0.000000 2.293287 2.697933 0.215682 -7.618802 1.812733 11.129462 -12.288353 -11.121982 5.220937 18.309949 7.321987 31.985100 -10.972894 39.788188 23.909420 0.000000 0.000000 0.000000 
6.407615 93.415527 -13.533934 0.000000 0.000000 0.000000 4.392848 8.480468 -1.214842 -17.689840 8.052131 1.129182 22.885848 3.738769 10.110146 -9.234522 -2.741607 -10.782480 -1.994342 -4.249468 3.241525 0.000000 0.000000 0.000000 4.548302 5.713158 -1.022209 -6.027820 -9.869858 3.091643 17.792117 -1.215308 -2.466420 -17.921054 -26.381594 7.569473 -4.335272 4.054215 -6.174492 0.000000 0.000000 0.000000 6.050607 10.634683 -1.749980 19.073476 -0.872727 2.099367 4.575621 2.464123 -0.157723 0.191855 -1.174816 0.183293 0.000000 0.000000 0.000000 6.181933 5.656765 -0.543188 6.490973 14.961601 8.877822 -14.813847 -64.686297 -54.854796 0.000000 0.000000 0.000000 6.577695 2.655770 -0.368462 5.031992 -35.078564 -0.263232 6.018308 1.031705 -6.984879 18.298143 15.994833 -54.136902 9.042115 -40.165597 15.549255 0.000000 0.000000 0.000000 2.290314 2.795681 0.301453 -7.581551 2.319575 12.467553 -12.715374 -10.838763 5.172363 17.291823 7.080711 33.037557 -12.203967 39.907511 26.070728 0.000000 0.000000 0.000000 
6.410565 93.316360 -13.504808 0.000000 0.000000 0.000000 4.194887 8.633614 -1.159972 -17.659560 7.965335 1.145803 22.972383 3.725854 10.054637 -9.269367 -2.702861 -11.003905 -1.930711 -4.213264 3.217947 0.000000 0.000000 0.000000 4.380041 5.873640 -0.955589 -6.005814 -9.834742 2.946269 18.058008 -1.036650 -2.328499 -17.949566 -26.491865 7.593117 -4.215653 4.128785 -6.614112 0.000000 0.000000 0.000000 5.892144 10.870582 -1.760187 18.981497 -0.672269 2.150924 4.724390 2.612475 -0.139385 0.180490 -1.202888 0.179055 0.000000 0.000000 0.000000 6.219035 5.808726 -0.459984 6.134391 14.903387 8.636960 -16.951882 -66.381898 -57.544617 0.000000 0.000000 0.000000 6.626856 2.800390 -0.351039 4.799980 -34.868003 -0.958304 5.917751 0.863907 -6.709760 17.584867 14.897585 -53.882498 9.141379 -41.087259 14.955630 0.000000 0.000000 0.000000 2.279093 2.920095 0.405885 -7.526867 2.982425 13.909817 -13.333732 -10.709105 5.184619 16.186975 7.154598 34.445402 -13.509161 39.689358 28.320483 0.000000 0.000000 0.000000 
6.409806 93.243042 -13.495813 0.000000 0.000000 0.000000 3.997106 8.819530 -1.024229 -17.587384 7.833593 1.072593 22.926505 3.711188 9.998894 -9.209661 -2.632099 -11.193585 -1.890268 -4.173013 3.181218 0.000000 0.000000 0.000000 4.205345 6.061960 -0.813240 -5.960083 -9.882564 2.725438 18.258170 -0.834150 -2.178818 -18.027680 -26.567284 7.596288 -4.002980 4.191233 -7.027524 0.000000 0.000000 0.000000 5.709501 11.123445 -1.695237 18.949166 -0.446589 2.191096 4.854900 2.764476 -0.128893 0.176135 -1.235659 0.175159 0.000000 0.000000 0.000000 6.270776 5.968755 -0.393742 5.656591 14.844547 8.271800 -19.617266 -68.071182 -60.533125 0.000000 0.000000 0.000000 6.643767 2.951955 -0.352155 4.568165 -34.782817 -1.717314 5.836689 0.670755 -6.417952 16.719531 13.686625 -53.605869 8.841587 -42.295383 13.925087 0.000000 0.000000 0.000000 2.267198 3.065446 0.515624 -7.468783 3.863546 15.390938 -14.114891 -10.690299 5.232121 15.189238 7.548436 36.098731 -14.822513 39.232224 30.566941 0.000000 0.000000 0.000000 
6.408589 93.200119 -13.490133 0.000000 0.000000 0.000000 3.796976 9.034056 -0.816477 -17.464159 7.663361 0.912219 22.771649 3.705645 9.957840 -9.053408 -2.524456 -11.320803 -1.846594 -4.128437 3.108242 0.000000 0.000000 0.000000 4.036380 6.295924 -0.611750 -5.842045 -9.983759 2.464398 18.359260 -0.637231 -2.039562 -18.214769 -26.618898 7.507333 -3.666921 4.234582 -7.393855 0.000000 0.000000 0.000000 5.495640 11.374113 -1.561811 18.938940 -0.206352 2.223208 4.963866 2.907556 -0.126959 0.170019 -1.268532 0.175274 0.000000 0.000000 0.000000 6.324484 6.124678 -0.341667 5.080254 14.788871 7.835266 -22.706984 -69.737290 -63.853465 0.000000 0.000000 0.000000 6.653172 3.099071 -0.366236 4.329128 -34.722127 -2.528940 5.716353 0.546008 -6.141885 15.656185 12.231994 -53.368219 8.216023 -43.483522 12.586428 0.000000 0.000000 0.000000 2.257550 3.213652 0.616337 -7.427534 4.998195 16.797928 -14.987016 -10.721532 5.349907 14.405065 8.292247 37.809332 -16.171069 38.693257 32.802475 0.000000 0.000000 0.000000 
